<svg width="273" height="89" fill="none" xmlns="http://www.w3.org/2000/svg"><path d="M227.421 88.536c-.848 0-1.679-.104-2.495-.312a6.837 6.837 0 0 1-2.184-.936c-.192-.112-.321-.248-.385-.408a.979.979 0 0 1-.024-.48.922.922 0 0 1 .216-.408.776.776 0 0 1 .385-.216.726.726 0 0 1 .479.072c.704.432 1.377.728 2.017.888.64.16 1.272.24 1.896.24 1.136 0 1.991-.304 2.567-.912.592-.608.888-1.488.888-2.64v-2.712h.24a3.745 3.745 0 0 1-1.535 2.208c-.768.544-1.673.816-2.713.816-1.072 0-1.999-.24-2.783-.72-.784-.496-1.393-1.184-1.825-2.064-.416-.88-.623-1.896-.623-3.048 0-.864.12-1.648.36-2.352.24-.72.584-1.328 1.032-1.824a4.673 4.673 0 0 1 1.655-1.176c.656-.288 1.384-.432 2.184-.432 1.056 0 1.969.272 2.737.816a3.568 3.568 0 0 1 1.487 2.16l-.239.288v-2.232c0-.32.079-.56.239-.72.176-.176.416-.264.72-.264.32 0 .561.088.721.264.16.16.24.4.24.72V83.16c0 1.776-.449 3.112-1.345 4.008-.88.912-2.184 1.368-3.912 1.368Zm-.288-6.384c.752 0 1.4-.168 1.944-.504.544-.352.961-.848 1.249-1.488.304-.64.455-1.392.455-2.256 0-1.296-.327-2.32-.983-3.072-.656-.768-1.545-1.152-2.665-1.152-.736 0-1.375.176-1.919.528-.544.336-.969.824-1.273 1.464-.288.624-.431 1.368-.431 2.232 0 1.296.327 2.328.983 3.096.656.768 1.536 1.152 2.64 1.152ZM209.581 84.168c-.32 0-.56-.088-.72-.264-.16-.176-.24-.424-.24-.744V73.152c0-.32.08-.56.24-.72.16-.176.392-.264.696-.264.304 0 .536.088.696.264.176.16.264.4.264.72v2.064l-.264-.288c.336-.928.88-1.624 1.632-2.088.768-.48 1.648-.72 2.64-.72.928 0 1.696.168 2.304.504.624.336 1.088.848 1.392 1.536.304.672.456 1.528.456 2.568v6.432c0 .32-.088.568-.264.744-.16.176-.392.264-.696.264-.32 0-.568-.088-.744-.264-.16-.176-.24-.424-.24-.744v-6.312c0-1.088-.216-1.88-.648-2.376-.416-.512-1.088-.768-2.016-.768-1.072 0-1.928.336-2.568 1.008-.624.656-.936 1.536-.936 2.64v5.808c0 .672-.328 1.008-.984 1.008ZM204.003 84.12c-.32 0-.56-.088-.72-.264-.16-.192-.24-.456-.24-.792v-9.816c0-.336.08-.592.24-.768.16-.176.4-.264.72-.264.304 0 .544.088.72.264.176.176.264.432.264.768v9.816c0 .336-.088.6-.264.792-.16.176-.4.264-.72.264Zm0-14.592c-.4 0-.712-.104-.936-.312-.224-.224-.336-.52-.336-.888 0-.384.112-.672.336-.864.224-.208.536-.312.936-.312.416 0 .728.104.936.312.224.192.336.48.336.864 0 .368-.112.664-.336.888-.208.208-.52.312-.936.312ZM196.877 84.216c-1.168 0-2.176-.256-3.024-.768a5.184 5.184 0 0 1-1.968-2.136c-.448-.928-.672-2-.672-3.216 0-.928.128-1.76.384-2.496a5.015 5.015 0 0 1 1.128-1.872 4.851 4.851 0 0 1 1.776-1.2c.704-.272 1.496-.408 2.376-.408.576 0 1.176.088 1.8.264.624.176 1.192.48 1.704.912.16.112.264.248.312.408.048.16.048.32 0 .48a.973.973 0 0 1-.24.384.75.75 0 0 1-.432.168c-.16.016-.328-.04-.504-.168a3.92 3.92 0 0 0-1.272-.672 4.388 4.388 0 0 0-1.248-.192c-.624 0-1.168.104-1.632.312a3.11 3.11 0 0 0-1.176.84c-.32.368-.568.824-.744 1.368-.16.544-.24 1.176-.24 1.896 0 1.392.328 2.496.984 3.312.656.8 1.592 1.2 2.808 1.2a4.191 4.191 0 0 0 2.52-.864c.176-.128.344-.184.504-.168.16.016.296.08.408.192a.658.658 0 0 1 .216.384c.048.16.048.32 0 .48a.778.778 0 0 1-.312.384 5.065 5.065 0 0 1-1.68.912c-.608.176-1.2.264-1.776.264ZM187.315 84.12c-.32 0-.56-.088-.72-.264-.16-.192-.24-.456-.24-.792v-9.816c0-.336.08-.592.24-.768.16-.176.4-.264.72-.264.304 0 .544.088.72.264.176.176.264.432.264.768v9.816c0 .336-.088.6-.264.792-.16.176-.4.264-.72.264Zm0-14.592c-.4 0-.712-.104-.936-.312-.224-.224-.336-.52-.336-.888 0-.384.112-.672.336-.864.224-.208.536-.312.936-.312.416 0 .728.104.936.312.224.192.336.48.336.864 0 .368-.112.664-.336.888-.208.208-.52.312-.936.312ZM178.738 84.168c-.32 0-.568-.088-.744-.264-.16-.176-.24-.424-.24-.744V73.152c0-.32.08-.56.24-.72.16-.176.392-.264.696-.264.304 0 .536.088.696.264.176.16.264.4.264.72v1.944h-.24c.256-.944.744-1.672 1.464-2.184.72-.512 1.608-.784 2.664-.816.24-.016.432.04.576.168.144.112.224.312.24.6.016.272-.048.488-.192.648-.144.16-.368.256-.672.288l-.384.048c-1.088.096-1.928.448-2.52 1.056-.576.592-.864 1.408-.864 2.448v5.808c0 .32-.088.568-.264.744-.16.176-.4.264-.72.264ZM164.048 84.168c-.32 0-.568-.088-.744-.264-.16-.192-.24-.448-.24-.768V68.088c0-.336.088-.584.264-.744.176-.176.424-.264.744-.264h5.688c1.808 0 3.2.448 4.176 1.344.976.88 1.464 2.128 1.464 3.744 0 1.6-.488 2.848-1.464 3.744-.976.896-2.368 1.344-4.176 1.344h-4.728v5.88c0 .32-.08.576-.24.768-.16.176-.408.264-.744.264Zm.984-8.568h4.488c1.296 0 2.272-.288 2.928-.864.672-.592 1.008-1.448 1.008-2.568 0-1.136-.336-1.992-1.008-2.568-.656-.592-1.632-.888-2.928-.888h-4.488V75.6ZM149.096 84.216c-1.232 0-2.296-.24-3.192-.72a5.288 5.288 0 0 1-2.064-2.088c-.48-.896-.72-1.968-.72-3.216 0-1.216.24-2.272.72-3.168.48-.912 1.136-1.624 1.968-2.136.848-.512 1.824-.768 2.928-.768.784 0 1.488.136 2.112.408a4.165 4.165 0 0 1 1.584 1.128 4.828 4.828 0 0 1 1.008 1.8c.24.704.36 1.496.36 2.376 0 .256-.072.448-.216.576-.144.112-.352.168-.624.168h-8.352v-1.272h7.896l-.384.312c0-.864-.128-1.592-.384-2.184-.256-.608-.632-1.072-1.128-1.392-.48-.32-1.088-.48-1.824-.48-.816 0-1.512.192-2.088.576-.56.368-.984.888-1.272 1.56-.288.656-.432 1.424-.432 2.304v.144c0 1.472.352 2.592 1.056 3.36.72.768 1.736 1.152 3.048 1.152.544 0 1.08-.072 1.608-.216a5.4 5.4 0 0 0 1.584-.72c.224-.144.424-.208.6-.192.192 0 .344.056.456.168a.658.658 0 0 1 .216.384c.048.144.032.304-.048.48-.064.176-.2.328-.408.456-.528.384-1.152.68-1.872.888a7.669 7.669 0 0 1-2.136.312ZM140.407 84.216c-1.152 0-2.032-.352-2.64-1.056-.608-.704-.912-1.712-.912-3.024v-12.24c0-.32.08-.56.24-.72.16-.176.4-.264.72-.264.304 0 .544.088.72.264.176.16.264.4.264.72v12.096c0 .864.168 1.512.504 1.944.352.416.864.624 1.536.624.144 0 .272-.008.384-.024.112-.016.224-.024.336-.024.176-.016.296.024.36.12.08.096.12.288.12.576s-.064.504-.192.648c-.128.144-.336.24-.624.288l-.408.048c-.144.016-.28.024-.408.024ZM128.767 84.216c-1.056 0-1.968-.272-2.736-.816a3.926 3.926 0 0 1-1.512-2.184l.264-.264v2.208c0 .32-.088.568-.264.744-.16.176-.392.264-.696.264-.32 0-.56-.088-.72-.264-.16-.176-.24-.424-.24-.744V67.896c0-.32.08-.56.24-.72.16-.176.4-.264.72-.264.304 0 .544.088.72.264.176.16.264.4.264.72v7.152h-.288a3.93 3.93 0 0 1 1.536-2.136c.752-.528 1.656-.792 2.712-.792 1.056 0 1.968.248 2.736.744.768.48 1.36 1.176 1.776 2.088.432.896.648 1.968.648 3.216 0 1.232-.216 2.304-.648 3.216-.416.896-1.016 1.592-1.8 2.088-.768.496-1.672.744-2.712.744Zm-.408-1.56c.736 0 1.368-.176 1.896-.528.544-.352.96-.864 1.248-1.536.304-.672.456-1.48.456-2.424 0-1.456-.328-2.568-.984-3.336-.64-.768-1.512-1.152-2.616-1.152-.72 0-1.352.176-1.896.528-.544.336-.968.84-1.272 1.512-.288.656-.432 1.472-.432 2.448 0 1.44.328 2.552.984 3.336.656.768 1.528 1.152 2.616 1.152ZM113.808 84.216c-.8 0-1.52-.152-2.16-.456a3.913 3.913 0 0 1-1.488-1.296 3.182 3.182 0 0 1-.552-1.824c0-.864.216-1.544.648-2.04.448-.496 1.176-.848 2.184-1.056 1.024-.208 2.416-.312 4.176-.312h1.08v1.272h-1.056c-1.296 0-2.32.064-3.072.192-.736.112-1.256.312-1.56.6-.288.288-.432.696-.432 1.224 0 .656.224 1.192.672 1.608.464.416 1.088.624 1.872.624.64 0 1.2-.152 1.68-.456.496-.304.88-.72 1.152-1.248.288-.528.432-1.136.432-1.824v-2.736c0-.992-.2-1.704-.6-2.136-.4-.448-1.056-.672-1.968-.672-.56 0-1.12.072-1.68.216a8.638 8.638 0 0 0-1.776.696c-.224.112-.416.152-.576.12a.727.727 0 0 1-.384-.264.847.847 0 0 1-.168-.432.92.92 0 0 1 .096-.504c.096-.16.24-.288.432-.384a9.471 9.471 0 0 1 2.088-.768 8.692 8.692 0 0 1 1.968-.24c1.008 0 1.84.168 2.496.504.656.32 1.144.816 1.464 1.488.32.656.48 1.504.48 2.544v6.504c0 .32-.08.568-.24.744-.144.176-.36.264-.648.264-.304 0-.536-.088-.696-.264-.16-.176-.24-.424-.24-.744v-1.872h.216a3.458 3.458 0 0 1-.744 1.56 3.593 3.593 0 0 1-1.32 1.008c-.528.24-1.12.36-1.776.36ZM100.584 84.216c-1.04 0-1.952-.248-2.736-.744-.768-.496-1.368-1.192-1.8-2.088-.416-.912-.624-1.984-.624-3.216 0-1.248.208-2.32.624-3.216.432-.912 1.032-1.608 1.8-2.088.784-.496 1.696-.744 2.736-.744 1.056 0 1.96.264 2.712.792a3.813 3.813 0 0 1 1.512 2.136h-.264v-7.152c0-.32.08-.56.24-.72.176-.176.424-.264.744-.264.304 0 .536.088.696.264.176.16.264.4.264.72V83.16c0 .32-.08.568-.24.744-.16.176-.4.264-.72.264-.304 0-.544-.088-.72-.264-.16-.176-.24-.424-.24-.744v-2.28l.264.336a3.887 3.887 0 0 1-1.536 2.184c-.752.544-1.656.816-2.712.816Zm.408-1.56c.72 0 1.352-.176 1.896-.528.544-.352.96-.864 1.248-1.536.304-.672.456-1.48.456-2.424 0-1.456-.328-2.568-.984-3.336-.64-.768-1.512-1.152-2.616-1.152-.736 0-1.376.176-1.92.528-.528.336-.944.84-1.248 1.512-.288.656-.432 1.472-.432 2.448 0 1.44.328 2.552.984 3.336.656.768 1.528 1.152 2.616 1.152ZM88.668 84.168c-.32 0-.568-.088-.744-.264-.16-.176-.24-.424-.24-.744V73.152c0-.32.08-.56.24-.72.16-.176.392-.264.696-.264.304 0 .536.088.696.264.176.16.264.4.264.72v1.944h-.24c.256-.944.744-1.672 1.464-2.184.72-.512 1.608-.784 2.664-.816.24-.016.432.04.576.168.144.112.224.312.24.6.016.272-.048.488-.192.648-.144.16-.368.256-.672.288l-.384.048c-1.088.096-1.928.448-2.52 1.056-.576.592-.864 1.408-.864 2.448v5.808c0 .32-.088.568-.264.744-.16.176-.4.264-.72.264ZM79.195 84.216c-1.136 0-2.12-.248-2.952-.744a5.107 5.107 0 0 1-1.944-2.088c-.448-.912-.672-1.984-.672-3.216 0-.928.128-1.76.384-2.496a5.216 5.216 0 0 1 1.128-1.92 4.897 4.897 0 0 1 1.752-1.2c.688-.288 1.456-.432 2.304-.432 1.136 0 2.12.248 2.952.744.832.496 1.472 1.2 1.92 2.112.464.896.696 1.96.696 3.192 0 .928-.128 1.76-.384 2.496a5.49 5.49 0 0 1-1.128 1.92 5.116 5.116 0 0 1-1.776 1.224c-.672.272-1.432.408-2.28.408Zm0-1.56c.72 0 1.352-.176 1.896-.528.544-.352.96-.864 1.248-1.536.304-.672.456-1.48.456-2.424 0-1.456-.328-2.568-.984-3.336-.64-.768-1.512-1.152-2.616-1.152-.736 0-1.376.176-1.92.528-.528.336-.944.84-1.248 1.512-.288.656-.432 1.472-.432 2.448 0 1.44.328 2.552.984 3.336.656.768 1.528 1.152 2.616 1.152ZM68.268 84.168c-.304 0-.544-.088-.72-.264-.16-.176-.24-.424-.24-.744v-9.312h-1.536c-.256 0-.464-.064-.624-.192-.144-.144-.216-.336-.216-.576 0-.24.072-.424.216-.552.16-.128.368-.192.624-.192h2.064l-.528.504v-.912c0-1.52.368-2.68 1.104-3.48.752-.8 1.848-1.264 3.288-1.392l.696-.072c.224-.016.4.024.528.12a.58.58 0 0 1 .264.36.876.876 0 0 1 .024.456.773.773 0 0 1-.216.384.652.652 0 0 1-.408.192l-.552.048c-.976.08-1.688.376-2.136.888-.432.512-.648 1.264-.648 2.256v1.008l-.288-.36h2.88c.272 0 .48.064.624.192.144.128.216.312.216.552 0 .24-.072.432-.216.576-.144.128-.352.192-.624.192h-2.592v9.312c0 .672-.328 1.008-.984 1.008Z" fill="#fff"/><path d="M60.65 84.168c-.303 0-.544-.088-.72-.264-.16-.176-.24-.424-.24-.744v-9.312h-1.535c-.257 0-.465-.064-.624-.192-.145-.144-.216-.336-.216-.576 0-.24.072-.424.216-.552.16-.128.367-.192.623-.192h2.064l-.528.504v-.912c0-1.52.369-2.68 1.105-3.48.752-.8 1.847-1.264 3.287-1.392l.697-.072c.224-.016.4.024.528.12a.58.58 0 0 1 .263.36.876.876 0 0 1 .025.456.773.773 0 0 1-.216.384.652.652 0 0 1-.409.192l-.552.048c-.976.08-1.688.376-2.136.888-.431.512-.647 1.264-.647 2.256v1.008l-.288-.36h2.88c.272 0 .48.064.623.192.145.128.217.312.217.552 0 .24-.072.432-.216.576-.144.128-.352.192-.624.192h-2.593v9.312c0 .672-.328 1.008-.983 1.008ZM41.65 84.168c-.256 0-.464-.056-.624-.168a.8.8 0 0 1-.264-.48c-.016-.208.032-.44.144-.696l6.6-15.024c.144-.32.312-.544.504-.672.208-.144.432-.216.672-.216.24 0 .456.072.648.216.208.128.376.352.504.672l6.624 15.024c.128.256.176.488.144.696a.638.638 0 0 1-.24.48c-.144.112-.344.168-.6.168-.288 0-.52-.072-.696-.216-.176-.16-.32-.384-.432-.672l-1.776-4.104.96.504h-10.32l.984-.504-1.752 4.104c-.144.304-.296.528-.456.672-.16.144-.368.216-.624.216Zm7.008-14.784-3.864 9.096-.576-.456h8.88l-.528.456-3.864-9.096h-.048ZM21.456 82.824a.904.904 0 0 1-.528.072.79.79 0 0 1-.384-.24.989.989 0 0 1-.144-.432.667.667 0 0 1 .096-.432.934.934 0 0 1 .384-.36l10.752-4.8v.96l-10.752-4.8a1.005 1.005 0 0 1-.384-.336A.763.763 0 0 1 20.4 72a.83.83 0 0 1 .144-.408.727.727 0 0 1 .384-.264c.16-.048.336-.024.528.072l10.224 4.632c.512.224.768.584.768 1.08 0 .24-.064.456-.192.648-.128.176-.32.32-.576.432l-10.224 4.632ZM11.572 78.408a.863.863 0 0 1-.6-.216.786.786 0 0 1-.24-.576c0-.24.08-.432.24-.576.16-.16.36-.24.6-.24h5.4c.224 0 .416.08.576.24.16.144.24.336.24.576 0 .224-.08.416-.24.576a.831.831 0 0 1-.576.216h-5.4ZM1.4 78.408a.863.863 0 0 1-.6-.216.786.786 0 0 1-.24-.576c0-.24.08-.432.24-.576.16-.16.36-.24.6-.24h5.4c.224 0 .416.08.576.24.16.144.24.336.24.576 0 .224-.08.416-.24.576a.831.831 0 0 1-.576.216H1.4ZM267.776 51.216c-.72 0-1.448-.088-2.184-.264a6.033 6.033 0 0 1-2.016-.912.945.945 0 0 1-.336-.384.94.94 0 0 1-.072-.456.88.88 0 0 1 .192-.408.632.632 0 0 1 .384-.192c.16-.032.336 0 .528.096.624.384 1.224.656 1.8.816a7.394 7.394 0 0 0 1.752.216c.912 0 1.6-.168 2.064-.504.464-.336.696-.792.696-1.368 0-.448-.152-.8-.456-1.056-.304-.272-.784-.48-1.44-.624l-2.184-.48c-1.008-.208-1.76-.568-2.256-1.08-.48-.512-.72-1.176-.72-1.992 0-.72.184-1.336.552-1.848.384-.528.92-.936 1.608-1.224.688-.288 1.488-.432 2.4-.432.704 0 1.368.096 1.992.288.64.176 1.216.464 1.728.864.16.112.264.248.312.408a.638.638 0 0 1 .024.456.773.773 0 0 1-.216.384.72.72 0 0 1-.408.168c-.16.016-.328-.032-.504-.144a5.31 5.31 0 0 0-1.464-.696 4.75 4.75 0 0 0-1.464-.24c-.896 0-1.576.176-2.04.528-.464.352-.696.816-.696 1.392 0 .448.144.816.432 1.104.288.288.736.496 1.344.624l2.184.456c1.04.224 1.816.584 2.328 1.08.528.48.792 1.136.792 1.968 0 1.056-.424 1.896-1.272 2.52-.848.624-1.976.936-3.384.936ZM251.159 51.168c-.32 0-.56-.088-.72-.264-.16-.176-.24-.424-.24-.744V40.152c0-.32.08-.56.24-.72.16-.176.392-.264.696-.264.304 0 .536.088.696.264.176.16.264.4.264.72v2.064l-.264-.288c.336-.928.88-1.624 1.632-2.088.768-.48 1.648-.72 2.64-.72.928 0 1.696.168 2.304.504.624.336 1.088.848 1.392 1.536.304.672.456 1.528.456 2.568v6.432c0 .32-.088.568-.264.744-.16.176-.392.264-.696.264-.32 0-.568-.088-.744-.264-.16-.176-.24-.424-.24-.744v-6.312c0-1.088-.216-1.88-.648-2.376-.416-.512-1.088-.768-2.016-.768-1.072 0-1.928.336-2.568 1.008-.624.656-.936 1.536-.936 2.64v5.808c0 .672-.328 1.008-.984 1.008ZM241.711 51.216c-1.136 0-2.12-.248-2.952-.744a5.107 5.107 0 0 1-1.944-2.088c-.448-.912-.672-1.984-.672-3.216 0-.928.128-1.76.384-2.496a5.216 5.216 0 0 1 1.128-1.92 4.897 4.897 0 0 1 1.752-1.2c.688-.288 1.456-.432 2.304-.432 1.136 0 2.12.248 2.952.744.832.496 1.472 1.2 1.92 2.112.464.896.696 1.96.696 3.192 0 .928-.128 1.76-.384 2.496a5.49 5.49 0 0 1-1.128 1.92 5.116 5.116 0 0 1-1.776 1.224c-.672.272-1.432.408-2.28.408Zm0-1.56c.72 0 1.352-.176 1.896-.528.544-.352.96-.864 1.248-1.536.304-.672.456-1.48.456-2.424 0-1.456-.328-2.568-.984-3.336-.64-.768-1.512-1.152-2.616-1.152-.736 0-1.376.176-1.92.528-.528.336-.944.84-1.248 1.512-.288.656-.432 1.472-.432 2.448 0 1.44.328 2.552.984 3.336.656.768 1.528 1.152 2.616 1.152ZM232.245 51.12c-.32 0-.56-.088-.72-.264-.16-.192-.24-.456-.24-.792v-9.816c0-.336.08-.592.24-.768.16-.176.4-.264.72-.264.304 0 .544.088.72.264.176.176.264.432.264.768v9.816c0 .336-.088.6-.264.792-.16.176-.4.264-.72.264Zm0-14.592c-.4 0-.712-.104-.936-.312-.224-.224-.336-.52-.336-.888 0-.384.112-.672.336-.864.224-.208.536-.312.936-.312.416 0 .728.104.936.312.224.192.336.48.336.864 0 .368-.112.664-.336.888-.208.208-.52.312-.936.312ZM227.434 51.216c-.912 0-1.68-.16-2.304-.48a3.219 3.219 0 0 1-1.368-1.44c-.304-.64-.456-1.416-.456-2.328v-6.12h-1.608c-.272 0-.48-.064-.624-.192-.144-.144-.216-.336-.216-.576 0-.24.072-.424.216-.552.144-.128.352-.192.624-.192h1.608v-2.76c0-.32.088-.56.264-.72.176-.176.416-.264.72-.264s.536.088.696.264c.176.16.264.4.264.72v2.76h3.024c.272 0 .48.064.624.192.144.128.216.312.216.552 0 .24-.072.432-.216.576-.144.128-.352.192-.624.192h-3.024v5.928c0 .912.192 1.608.576 2.088.384.464 1.008.696 1.872.696.304 0 .56-.032.768-.096a2.1 2.1 0 0 1 .552-.096.392.392 0 0 1 .36.144c.096.112.144.304.144.576 0 .192-.04.368-.12.528a.579.579 0 0 1-.36.336c-.192.064-.448.12-.768.168a4.1 4.1 0 0 1-.84.096ZM213.429 51.216c-.944 0-1.728-.168-2.352-.504-.608-.352-1.072-.872-1.392-1.56-.304-.688-.456-1.544-.456-2.568v-6.432c0-.336.08-.584.24-.744.176-.16.416-.24.72-.24.32 0 .56.08.72.24.176.16.264.408.264.744v6.408c0 1.024.208 1.792.624 2.304.432.496 1.104.744 2.016.744.992 0 1.8-.336 2.424-1.008.624-.672.936-1.552.936-2.64v-5.808c0-.336.08-.584.24-.744.176-.16.424-.24.744-.24.304 0 .536.08.696.24.176.16.264.408.264.744V50.16c0 .672-.312 1.008-.936 1.008-.304 0-.544-.088-.72-.264-.16-.176-.24-.424-.24-.744v-2.184l.312.336c-.32.944-.848 1.664-1.584 2.16-.72.496-1.56.744-2.52.744ZM205.751 51.216c-1.152 0-2.032-.352-2.64-1.056-.608-.704-.912-1.712-.912-3.024v-12.24c0-.32.08-.56.24-.72.16-.176.4-.264.72-.264.304 0 .544.088.72.264.176.16.264.4.264.72v12.096c0 .864.168 1.512.504 1.944.352.416.864.624 1.536.624.144 0 .272-.008.384-.024.112-.016.224-.024.336-.024.176-.016.296.024.36.12.08.096.12.288.12.576s-.064.504-.192.648c-.128.144-.336.24-.624.288l-.408.048c-.144.016-.28.024-.408.024ZM193.711 51.216c-1.136 0-2.12-.248-2.952-.744a5.107 5.107 0 0 1-1.944-2.088c-.448-.912-.672-1.984-.672-3.216 0-.928.128-1.76.384-2.496a5.216 5.216 0 0 1 1.128-1.92 4.897 4.897 0 0 1 1.752-1.2c.688-.288 1.456-.432 2.304-.432 1.136 0 2.12.248 2.952.744.832.496 1.472 1.2 1.92 2.112.464.896.696 1.96.696 3.192 0 .928-.128 1.76-.384 2.496a5.49 5.49 0 0 1-1.128 1.92 5.116 5.116 0 0 1-1.776 1.224c-.672.272-1.432.408-2.28.408Zm0-1.56c.72 0 1.352-.176 1.896-.528.544-.352.96-.864 1.248-1.536.304-.672.456-1.48.456-2.424 0-1.456-.328-2.568-.984-3.336-.64-.768-1.512-1.152-2.616-1.152-.736 0-1.376.176-1.92.528-.528.336-.944.84-1.248 1.512-.288.656-.432 1.472-.432 2.448 0 1.44.328 2.552.984 3.336.656.768 1.528 1.152 2.616 1.152ZM179.833 51.216a12.59 12.59 0 0 1-2.208-.192 10.938 10.938 0 0 1-2.016-.552 7.2 7.2 0 0 1-1.656-.912 1.263 1.263 0 0 1-.408-.48 1.102 1.102 0 0 1-.048-.552c.048-.192.128-.352.24-.48a.72.72 0 0 1 .456-.216c.176-.016.368.04.576.168a7.71 7.71 0 0 0 2.304 1.128c.816.224 1.736.336 2.76.336 1.44 0 2.504-.264 3.192-.792.704-.544 1.056-1.256 1.056-2.136 0-.72-.256-1.28-.768-1.68-.496-.416-1.336-.744-2.52-.984l-2.496-.504c-1.504-.32-2.632-.84-3.384-1.56-.736-.736-1.104-1.712-1.104-2.928 0-.752.152-1.432.456-2.04a4.534 4.534 0 0 1 1.272-1.584c.544-.448 1.192-.792 1.944-1.032s1.584-.36 2.496-.36c1.008 0 1.944.144 2.808.432.88.272 1.672.688 2.376 1.248.176.144.296.312.36.504a.853.853 0 0 1 .024.528.862.862 0 0 1-.264.408.703.703 0 0 1-.456.192c-.176.016-.376-.048-.6-.192a6.41 6.41 0 0 0-1.992-1.032c-.688-.224-1.448-.336-2.28-.336-.848 0-1.584.128-2.208.384-.608.256-1.088.632-1.44 1.128-.336.48-.504 1.04-.504 1.68 0 .768.232 1.376.696 1.824.48.448 1.256.776 2.328.984l2.496.528c1.616.336 2.808.848 3.576 1.536.784.672 1.176 1.592 1.176 2.76 0 .704-.144 1.352-.432 1.944a4.413 4.413 0 0 1-1.248 1.536c-.544.416-1.2.736-1.968.96-.768.224-1.632.336-2.592.336ZM158.358 51.216c-1.04 0-1.952-.248-2.736-.744-.768-.496-1.368-1.192-1.8-2.088-.416-.912-.624-1.984-.624-3.216 0-1.248.208-2.32.624-3.216.432-.912 1.032-1.608 1.8-2.088.784-.496 1.696-.744 2.736-.744 1.056 0 1.96.264 2.712.792a3.813 3.813 0 0 1 1.512 2.136h-.264v-7.152c0-.32.08-.56.24-.72.176-.176.424-.264.744-.264.304 0 .536.088.696.264.176.16.264.4.264.72V50.16c0 .32-.08.568-.24.744-.16.176-.4.264-.72.264-.304 0-.544-.088-.72-.264-.16-.176-.24-.424-.24-.744v-2.28l.264.336a3.887 3.887 0 0 1-1.536 2.184c-.752.544-1.656.816-2.712.816Zm.408-1.56c.72 0 1.352-.176 1.896-.528.544-.352.96-.864 1.248-1.536.304-.672.456-1.48.456-2.424 0-1.456-.328-2.568-.984-3.336-.64-.768-1.512-1.152-2.616-1.152-.736 0-1.376.176-1.92.528-.528.336-.944.84-1.248 1.512-.288.656-.432 1.472-.432 2.448 0 1.44.328 2.552.984 3.336.656.768 1.528 1.152 2.616 1.152ZM146.4 51.216c-1.232 0-2.296-.24-3.192-.72a5.288 5.288 0 0 1-2.064-2.088c-.48-.896-.72-1.968-.72-3.216 0-1.216.24-2.272.72-3.168.48-.912 1.136-1.624 1.968-2.136.848-.512 1.824-.768 2.928-.768.784 0 1.488.136 2.112.408a4.165 4.165 0 0 1 1.584 1.128 4.828 4.828 0 0 1 1.008 1.8c.24.704.36 1.496.36 2.376 0 .256-.072.448-.216.576-.144.112-.352.168-.624.168h-8.352v-1.272h7.896l-.384.312c0-.864-.128-1.592-.384-2.184-.256-.608-.632-1.072-1.128-1.392-.48-.32-1.088-.48-1.824-.48-.816 0-1.512.192-2.088.576-.56.368-.984.888-1.272 1.56-.288.656-.432 1.424-.432 2.304v.144c0 1.472.352 2.592 1.056 3.36.72.768 1.736 1.152 3.048 1.152.544 0 1.08-.072 1.608-.216a5.4 5.4 0 0 0 1.584-.72c.224-.144.424-.208.6-.192.192 0 .344.056.456.168a.658.658 0 0 1 .216.384c.048.144.032.304-.048.48-.064.176-.2.328-.408.456-.528.384-1.152.68-1.872.888a7.669 7.669 0 0 1-2.136.312ZM130.485 51c-.208 0-.376-.048-.504-.144a.727.727 0 0 1-.264-.384.984.984 0 0 1 0-.528c.048-.192.152-.376.312-.552l6.768-9.048v.504h-6.408c-.256 0-.456-.064-.6-.192-.128-.144-.192-.336-.192-.576 0-.24.064-.424.192-.552.144-.128.344-.192.6-.192h7.368c.24 0 .432.048.576.144.16.096.264.224.312.384a.896.896 0 0 1 0 .504c-.032.176-.12.352-.264.528l-6.888 9.144v-.552h6.744c.528 0 .792.248.792.744 0 .24-.072.432-.216.576-.128.128-.32.192-.576.192h-7.752ZM125.651 51.12c-.32 0-.56-.088-.72-.264-.16-.192-.24-.456-.24-.792v-9.816c0-.336.08-.592.24-.768.16-.176.4-.264.72-.264.304 0 .544.088.72.264.176.176.264.432.264.768v9.816c0 .336-.088.6-.264.792-.16.176-.4.264-.72.264Zm0-14.592c-.4 0-.712-.104-.936-.312-.224-.224-.336-.52-.336-.888 0-.384.112-.672.336-.864.224-.208.536-.312.936-.312.416 0 .728.104.936.312.224.192.336.48.336.864 0 .368-.112.664-.336.888-.208.208-.52.312-.936.312ZM105.145 51.168c-.32 0-.56-.088-.72-.264-.16-.176-.24-.424-.24-.744V40.152c0-.32.08-.56.24-.72.16-.176.392-.264.696-.264.304 0 .536.088.696.264.176.16.264.4.264.72v2.112l-.264-.336c.304-.896.792-1.584 1.464-2.064.688-.496 1.504-.744 2.448-.744.992 0 1.792.24 2.4.72.624.464 1.04 1.192 1.248 2.184h-.36c.288-.896.8-1.6 1.536-2.112.752-.528 1.624-.792 2.616-.792.88 0 1.6.168 2.16.504.576.336 1.008.848 1.296 1.536.288.672.432 1.528.432 2.568v6.432c0 .32-.088.568-.264.744-.16.176-.4.264-.72.264-.304 0-.544-.088-.72-.264-.16-.176-.24-.424-.24-.744v-6.336c0-1.072-.184-1.856-.552-2.352-.368-.512-.992-.768-1.872-.768-.96 0-1.72.336-2.28 1.008-.544.656-.816 1.552-.816 2.688v5.76c0 .32-.088.568-.264.744-.16.176-.4.264-.72.264-.304 0-.544-.088-.72-.264-.16-.176-.24-.424-.24-.744v-6.336c0-1.072-.192-1.856-.576-2.352-.368-.512-.984-.768-1.848-.768-.96 0-1.72.336-2.28 1.008-.544.656-.816 1.552-.816 2.688v5.76c0 .672-.328 1.008-.984 1.008ZM95.649 51.216c-1.136 0-2.12-.248-2.952-.744a5.107 5.107 0 0 1-1.944-2.088c-.448-.912-.672-1.984-.672-3.216 0-.928.128-1.76.384-2.496a5.216 5.216 0 0 1 1.128-1.92 4.897 4.897 0 0 1 1.752-1.2c.688-.288 1.456-.432 2.304-.432 1.136 0 2.12.248 2.952.744.832.496 1.472 1.2 1.92 2.112.464.896.696 1.96.696 3.192 0 .928-.128 1.76-.384 2.496a5.485 5.485 0 0 1-1.128 1.92 5.116 5.116 0 0 1-1.776 1.224c-.672.272-1.432.408-2.28.408Zm0-1.56c.72 0 1.352-.176 1.896-.528.544-.352.96-.864 1.248-1.536.304-.672.456-1.48.456-2.424 0-1.456-.328-2.568-.984-3.336-.64-.768-1.512-1.152-2.616-1.152-.736 0-1.376.176-1.92.528-.528.336-.944.84-1.248 1.512-.288.656-.432 1.472-.432 2.448 0 1.44.328 2.552.984 3.336.656.768 1.528 1.152 2.616 1.152ZM87.207 51.216c-.912 0-1.68-.16-2.304-.48a3.219 3.219 0 0 1-1.368-1.44c-.304-.64-.456-1.416-.456-2.328v-6.12h-1.608c-.272 0-.48-.064-.624-.192-.144-.144-.216-.336-.216-.576 0-.24.072-.424.216-.552.144-.128.352-.192.624-.192h1.608v-2.76c0-.32.088-.56.264-.72.176-.176.416-.264.72-.264s.536.088.696.264c.176.16.264.4.264.72v2.76h3.024c.272 0 .48.064.624.192.144.128.216.312.216.552 0 .24-.072.432-.216.576-.144.128-.352.192-.624.192h-3.024v5.928c0 .912.192 1.608.576 2.088.384.464 1.008.696 1.872.696.304 0 .56-.032.768-.096a2.1 2.1 0 0 1 .552-.096.392.392 0 0 1 .36.144c.096.112.144.304.144.576 0 .192-.04.368-.12.528a.579.579 0 0 1-.36.336c-.192.064-.448.12-.768.168a4.1 4.1 0 0 1-.84.096ZM75.026 51.216c-.72 0-1.448-.088-2.184-.264a6.033 6.033 0 0 1-2.016-.912.945.945 0 0 1-.336-.384.94.94 0 0 1-.072-.456.88.88 0 0 1 .192-.408.632.632 0 0 1 .384-.192c.16-.032.336 0 .528.096.624.384 1.224.656 1.8.816a7.394 7.394 0 0 0 1.752.216c.912 0 1.6-.168 2.064-.504.464-.336.696-.792.696-1.368 0-.448-.152-.8-.456-1.056-.304-.272-.784-.48-1.44-.624l-2.184-.48c-1.008-.208-1.76-.568-2.256-1.08-.48-.512-.72-1.176-.72-1.992 0-.72.184-1.336.552-1.848.384-.528.92-.936 1.608-1.224.688-.288 1.488-.432 2.4-.432.704 0 1.368.096 1.992.288.64.176 1.216.464 1.728.864.16.112.264.248.312.408a.638.638 0 0 1 .024.456.773.773 0 0 1-.216.384.72.72 0 0 1-.408.168c-.16.016-.328-.032-.504-.144a5.31 5.31 0 0 0-1.464-.696 4.75 4.75 0 0 0-1.464-.24c-.896 0-1.576.176-2.04.528-.464.352-.696.816-.696 1.392 0 .448.144.816.432 1.104.288.288.736.496 1.344.624l2.184.456c1.04.224 1.816.584 2.328 1.08.528.48.792 1.136.792 1.968 0 1.056-.424 1.896-1.272 2.52-.848.624-1.976.936-3.384.936ZM61.764 51.216c-.944 0-1.728-.168-2.352-.504-.608-.352-1.072-.872-1.392-1.56-.303-.688-.456-1.544-.456-2.568v-6.432c0-.336.08-.584.24-.744.176-.16.416-.24.72-.24.32 0 .56.08.72.24.176.16.264.408.264.744v6.408c0 1.024.209 1.792.624 2.304.433.496 1.105.744 2.017.744.992 0 1.8-.336 2.424-1.008.624-.672.936-1.552.936-2.64v-5.808c0-.336.08-.584.24-.744.175-.16.424-.24.744-.24.303 0 .535.08.696.24.176.16.264.408.264.744V50.16c0 .672-.313 1.008-.937 1.008-.303 0-.544-.088-.72-.264-.16-.176-.24-.424-.24-.744v-2.184l.313.336c-.32.944-.849 1.664-1.585 2.16-.72.496-1.56.744-2.52.744ZM49.33 51.216c-1.664 0-3.088-.352-4.272-1.056-1.184-.704-2.096-1.704-2.736-3-.624-1.296-.936-2.84-.936-4.632 0-1.344.176-2.544.528-3.6.368-1.072.888-1.976 1.56-2.712a6.819 6.819 0 0 1 2.52-1.728c.992-.416 2.104-.624 3.336-.624.992 0 1.936.144 2.832.432.896.272 1.672.68 2.328 1.224.208.16.344.344.408.552.08.192.088.384.024.576a.928.928 0 0 1-.288.456.703.703 0 0 1-.48.168c-.192 0-.408-.08-.648-.24A5.925 5.925 0 0 0 51.61 36a7.17 7.17 0 0 0-2.232-.336c-1.264 0-2.336.272-3.216.816-.88.528-1.544 1.304-1.992 2.328-.448 1.024-.672 2.264-.672 3.72 0 1.456.224 2.704.672 3.744.448 1.024 1.112 1.808 1.992 2.352.88.528 1.952.792 3.216.792.784 0 1.528-.112 2.232-.336a6.565 6.565 0 0 0 1.944-1.056c.24-.16.456-.232.648-.216.192 0 .352.056.48.168a.86.86 0 0 1 .264.432.817.817 0 0 1 0 .552.906.906 0 0 1-.36.504 7.013 7.013 0 0 1-2.376 1.32 9.358 9.358 0 0 1-2.88.432ZM21.456 49.824a.904.904 0 0 1-.528.072.79.79 0 0 1-.384-.24.989.989 0 0 1-.144-.432.667.667 0 0 1 .096-.432.934.934 0 0 1 .384-.36l10.752-4.8v.96l-10.752-4.8a1.005 1.005 0 0 1-.384-.336A.763.763 0 0 1 20.4 39a.83.83 0 0 1 .144-.408.727.727 0 0 1 .384-.264c.16-.048.336-.024.528.072l10.224 4.632c.512.224.768.584.768 1.08 0 .24-.064.456-.192.648-.128.176-.32.32-.576.432l-10.224 4.632ZM11.572 45.408a.863.863 0 0 1-.6-.216.786.786 0 0 1-.24-.576c0-.24.08-.432.24-.576.16-.16.36-.24.6-.24h5.4c.224 0 .416.08.576.24.16.144.24.336.24.576 0 .224-.08.416-.24.576a.831.831 0 0 1-.576.216h-5.4ZM1.4 45.408a.863.863 0 0 1-.6-.216.786.786 0 0 1-.24-.576c0-.24.08-.432.24-.576.16-.16.36-.24.6-.24h5.4c.224 0 .416.08.576.24.16.144.24.336.24.576 0 .224-.08.416-.24.576a.831.831 0 0 1-.576.216H1.4ZM237.626 18.216c-1.152 0-2.032-.352-2.64-1.056-.608-.704-.912-1.712-.912-3.024V1.896c0-.32.08-.56.24-.72.16-.176.4-.264.72-.264.304 0 .544.088.72.264.176.16.264.4.264.72v12.096c0 .864.168 1.512.504 1.944.352.416.864.624 1.536.624.144 0 .272-.008.384-.024.112-.016.224-.024.336-.024.176-.016.296.024.36.12.08.096.12.288.12.576s-.064.504-.192.648c-.128.144-.336.24-.624.288l-.408.048c-.144.016-.28.024-.408.024ZM229.456 18.12c-.32 0-.56-.088-.72-.264-.16-.192-.24-.456-.24-.792V7.248c0-.336.08-.592.24-.768.16-.176.4-.264.72-.264.304 0 .544.088.72.264.176.176.264.432.264.768v9.816c0 .336-.088.6-.264.792-.16.176-.4.264-.72.264Zm0-14.592c-.4 0-.712-.104-.936-.312-.224-.224-.336-.52-.336-.888 0-.384.112-.672.336-.864.224-.208.536-.312.936-.312.416 0 .728.104.936.312.224.192.336.48.336.864 0 .368-.112.664-.336.888-.208.208-.52.312-.936.312ZM219.441 18.216c-.8 0-1.52-.152-2.16-.456a3.913 3.913 0 0 1-1.488-1.296 3.182 3.182 0 0 1-.552-1.824c0-.864.216-1.544.648-2.04.448-.496 1.176-.848 2.184-1.056 1.024-.208 2.416-.312 4.176-.312h1.08v1.272h-1.056c-1.296 0-2.32.064-3.072.192-.736.112-1.256.312-1.56.6-.288.288-.432.696-.432 1.224 0 .656.224 1.192.672 1.608.464.416 1.088.624 1.872.624.64 0 1.2-.152 1.68-.456.496-.304.88-.72 1.152-1.248.288-.528.432-1.136.432-1.824v-2.736c0-.992-.2-1.704-.6-2.136-.4-.448-1.056-.672-1.968-.672-.56 0-1.12.072-1.68.216a8.638 8.638 0 0 0-1.776.696c-.224.112-.416.152-.576.12a.727.727 0 0 1-.384-.264.847.847 0 0 1-.168-.432.92.92 0 0 1 .096-.504c.096-.16.24-.288.432-.384a9.471 9.471 0 0 1 2.088-.768 8.692 8.692 0 0 1 1.968-.24c1.008 0 1.84.168 2.496.504.656.32 1.144.816 1.464 1.488.32.656.48 1.504.48 2.544v6.504c0 .32-.08.568-.24.744-.144.176-.36.264-.648.264-.304 0-.536-.088-.696-.264-.16-.176-.24-.424-.24-.744v-1.872h.216a3.458 3.458 0 0 1-.744 1.56 3.593 3.593 0 0 1-1.32 1.008c-.528.24-1.12.36-1.776.36ZM212.059 18.216c-.912 0-1.68-.16-2.304-.48a3.219 3.219 0 0 1-1.368-1.44c-.304-.64-.456-1.416-.456-2.328v-6.12h-1.608c-.272 0-.48-.064-.624-.192-.144-.144-.216-.336-.216-.576 0-.24.072-.424.216-.552.144-.128.352-.192.624-.192h1.608v-2.76c0-.32.088-.56.264-.72.176-.176.416-.264.72-.264s.536.088.696.264c.176.16.264.4.264.72v2.76h3.024c.272 0 .48.064.624.192.144.128.216.312.216.552 0 .24-.072.432-.216.576-.144.128-.352.192-.624.192h-3.024v5.928c0 .912.192 1.608.576 2.088.384.464 1.008.696 1.872.696.304 0 .56-.032.768-.096a2.1 2.1 0 0 1 .552-.096.392.392 0 0 1 .36.144c.096.112.144.304.144.576 0 .192-.04.368-.12.528a.579.579 0 0 1-.36.336c-.192.064-.448.12-.768.168a4.1 4.1 0 0 1-.84.096ZM199.861 18.216c-1.232 0-2.296-.24-3.192-.72a5.288 5.288 0 0 1-2.064-2.088c-.48-.896-.72-1.968-.72-3.216 0-1.216.24-2.272.72-3.168.48-.912 1.136-1.624 1.968-2.136.848-.512 1.824-.768 2.928-.768.784 0 1.488.136 2.112.408a4.165 4.165 0 0 1 1.584 1.128 4.828 4.828 0 0 1 1.008 1.8c.24.704.36 1.496.36 2.376 0 .256-.072.448-.216.576-.144.112-.352.168-.624.168h-8.352v-1.272h7.896l-.384.312c0-.864-.128-1.592-.384-2.184-.256-.608-.632-1.072-1.128-1.392-.48-.32-1.088-.48-1.824-.48-.816 0-1.512.192-2.088.576-.56.368-.984.888-1.272 1.56-.288.656-.432 1.424-.432 2.304v.144c0 1.472.352 2.592 1.056 3.36.72.768 1.736 1.152 3.048 1.152.544 0 1.08-.072 1.608-.216a5.4 5.4 0 0 0 1.584-.72c.224-.144.424-.208.6-.192.192 0 .344.056.456.168a.658.658 0 0 1 .216.384c.048.144.032.304-.048.48-.064.176-.2.328-.408.456-.528.384-1.152.68-1.872.888a7.669 7.669 0 0 1-2.136.312ZM178.137 18c-.352 0-.624-.088-.816-.264-.176-.192-.264-.464-.264-.816V2.16c0-.352.088-.616.264-.792.192-.192.464-.288.816-.288h4.632c2.736 0 4.848.72 6.336 2.16 1.488 1.44 2.232 3.536 2.232 6.288 0 1.376-.192 2.592-.576 3.648-.368 1.04-.92 1.92-1.656 2.64-.736.72-1.632 1.264-2.688 1.632-1.056.368-2.272.552-3.648.552h-4.632Zm.888-1.68h3.6c1.12 0 2.088-.144 2.904-.432.832-.288 1.52-.712 2.064-1.272.56-.56.976-1.264 1.248-2.112.272-.864.408-1.856.408-2.976 0-2.256-.552-3.944-1.656-5.064-1.104-1.136-2.76-1.704-4.968-1.704h-3.6v13.56ZM162.117 18.216c-1.136 0-2.12-.248-2.952-.744a5.107 5.107 0 0 1-1.944-2.088c-.448-.912-.672-1.984-.672-3.216 0-.928.128-1.76.384-2.496a5.216 5.216 0 0 1 1.128-1.92 4.897 4.897 0 0 1 1.752-1.2c.688-.288 1.456-.432 2.304-.432 1.136 0 2.12.248 2.952.744.832.496 1.472 1.2 1.92 2.112.464.896.696 1.96.696 3.192 0 .928-.128 1.76-.384 2.496a5.49 5.49 0 0 1-1.128 1.92 5.116 5.116 0 0 1-1.776 1.224c-.672.272-1.432.408-2.28.408Zm0-1.56c.72 0 1.352-.176 1.896-.528.544-.352.96-.864 1.248-1.536.304-.672.456-1.48.456-2.424 0-1.456-.328-2.568-.984-3.336-.64-.768-1.512-1.152-2.616-1.152-.736 0-1.376.176-1.92.528-.528.336-.944.84-1.248 1.512-.288.656-.432 1.472-.432 2.448 0 1.44.328 2.552.984 3.336.656.768 1.528 1.152 2.616 1.152ZM153.676 18.216c-.912 0-1.68-.16-2.304-.48a3.219 3.219 0 0 1-1.368-1.44c-.304-.64-.456-1.416-.456-2.328v-6.12h-1.608c-.272 0-.48-.064-.624-.192-.144-.144-.216-.336-.216-.576 0-.24.072-.424.216-.552.144-.128.352-.192.624-.192h1.608v-2.76c0-.32.088-.56.264-.72.176-.176.416-.264.72-.264s.536.088.696.264c.176.16.264.4.264.72v2.76h3.024c.272 0 .48.064.624.192.144.128.216.312.216.552 0 .24-.072.432-.216.576-.144.128-.352.192-.624.192h-3.024v5.928c0 .912.192 1.608.576 2.088.384.464 1.008.696 1.872.696.304 0 .56-.032.768-.096a2.1 2.1 0 0 1 .552-.096.392.392 0 0 1 .36.144c.096.112.144.304.144.576 0 .192-.04.368-.12.528a.579.579 0 0 1-.36.336c-.192.064-.448.12-.768.168a4.1 4.1 0 0 1-.84.096ZM130.128 18.168c-.32 0-.56-.088-.72-.264-.16-.176-.24-.424-.24-.744V7.152c0-.32.08-.56.24-.72.16-.176.392-.264.696-.264.304 0 .536.088.696.264.176.16.264.4.264.72v2.064l-.264-.288c.336-.928.88-1.624 1.632-2.088.768-.48 1.648-.72 2.64-.72.928 0 1.696.168 2.304.504.624.336 1.088.848 1.392 1.536.304.672.456 1.528.456 2.568v6.432c0 .32-.088.568-.264.744-.16.176-.392.264-.696.264-.32 0-.568-.088-.744-.264-.16-.176-.24-.424-.24-.744v-6.312c0-1.088-.216-1.88-.648-2.376-.416-.512-1.088-.768-2.016-.768-1.072 0-1.928.336-2.568 1.008-.624.656-.936 1.536-.936 2.64v5.808c0 .672-.328 1.008-.984 1.008ZM120.68 18.216c-1.136 0-2.12-.248-2.952-.744a5.107 5.107 0 0 1-1.944-2.088c-.448-.912-.672-1.984-.672-3.216 0-.928.128-1.76.384-2.496a5.216 5.216 0 0 1 1.128-1.92 4.897 4.897 0 0 1 1.752-1.2c.688-.288 1.456-.432 2.304-.432 1.136 0 2.12.248 2.952.744.832.496 1.472 1.2 1.92 2.112.464.896.696 1.96.696 3.192 0 .928-.128 1.76-.384 2.496a5.49 5.49 0 0 1-1.128 1.92 5.116 5.116 0 0 1-1.776 1.224c-.672.272-1.432.408-2.28.408Zm0-1.56c.72 0 1.352-.176 1.896-.528.544-.352.96-.864 1.248-1.536.304-.672.456-1.48.456-2.424 0-1.456-.328-2.568-.984-3.336-.64-.768-1.512-1.152-2.616-1.152-.736 0-1.376.176-1.92.528-.528.336-.944.84-1.248 1.512-.288.656-.432 1.472-.432 2.448 0 1.44.328 2.552.984 3.336.656.768 1.528 1.152 2.616 1.152ZM111.214 18.12c-.32 0-.56-.088-.72-.264-.16-.192-.24-.456-.24-.792V7.248c0-.336.08-.592.24-.768.16-.176.4-.264.72-.264.304 0 .544.088.72.264.176.176.264.432.264.768v9.816c0 .336-.088.6-.264.792-.16.176-.4.264-.72.264Zm0-14.592c-.4 0-.712-.104-.936-.312-.224-.224-.336-.52-.336-.888 0-.384.112-.672.336-.864.224-.208.536-.312.936-.312.416 0 .728.104.936.312.224.192.336.48.336.864 0 .368-.112.664-.336.888-.208.208-.52.312-.936.312ZM106.403 18.216c-.912 0-1.68-.16-2.304-.48a3.219 3.219 0 0 1-1.368-1.44c-.304-.64-.456-1.416-.456-2.328v-6.12h-1.608c-.272 0-.48-.064-.624-.192-.144-.144-.216-.336-.216-.576 0-.24.072-.424.216-.552.144-.128.352-.192.624-.192h1.608v-2.76c0-.32.088-.56.264-.72.176-.176.416-.264.72-.264s.536.088.696.264c.176.16.264.4.264.72v2.76h3.024c.272 0 .48.064.624.192.144.128.216.312.216.552 0 .24-.072.432-.216.576-.144.128-.352.192-.624.192h-3.024v5.928c0 .912.192 1.608.576 2.088.384.464 1.008.696 1.872.696.304 0 .56-.032.768-.096a2.1 2.1 0 0 1 .552-.096.392.392 0 0 1 .36.144c.096.112.144.304.144.576 0 .192-.04.368-.12.528a.579.579 0 0 1-.36.336c-.192.064-.448.12-.768.168a4.1 4.1 0 0 1-.84.096ZM89.042 18.168c-.32 0-.56-.088-.72-.264-.16-.176-.24-.424-.24-.744V7.152c0-.32.08-.56.24-.72.16-.176.392-.264.696-.264.304 0 .536.088.696.264.176.16.264.4.264.72v2.064l-.264-.288c.336-.928.88-1.624 1.632-2.088.768-.48 1.648-.72 2.64-.72.928 0 1.696.168 2.304.504.624.336 1.088.848 1.392 1.536.304.672.456 1.528.456 2.568v6.432c0 .32-.088.568-.264.744-.16.176-.392.264-.696.264-.32 0-.568-.088-.744-.264-.16-.176-.24-.424-.24-.744v-6.312c0-1.088-.216-1.88-.648-2.376-.416-.512-1.088-.768-2.016-.768-1.072 0-1.928.336-2.568 1.008-.624.656-.936 1.536-.936 2.64v5.808c0 .672-.328 1.008-.984 1.008ZM80.564 18.216c-1.232 0-2.296-.24-3.192-.72a5.288 5.288 0 0 1-2.064-2.088c-.48-.896-.72-1.968-.72-3.216 0-1.216.24-2.272.72-3.168.48-.912 1.136-1.624 1.968-2.136.848-.512 1.824-.768 2.928-.768.784 0 1.488.136 2.112.408A4.165 4.165 0 0 1 83.9 7.656a4.828 4.828 0 0 1 1.008 1.8c.24.704.36 1.496.36 2.376 0 .256-.072.448-.216.576-.144.112-.352.168-.624.168h-8.352v-1.272h7.896l-.384.312c0-.864-.128-1.592-.384-2.184-.256-.608-.632-1.072-1.128-1.392-.48-.32-1.088-.48-1.824-.48-.816 0-1.512.192-2.088.576-.56.368-.984.888-1.272 1.56-.288.656-.432 1.424-.432 2.304v.144c0 1.472.352 2.592 1.056 3.36.72.768 1.736 1.152 3.048 1.152.544 0 1.08-.072 1.608-.216a5.4 5.4 0 0 0 1.584-.72c.224-.144.424-.208.6-.192.192 0 .344.056.456.168a.658.658 0 0 1 .216.384c.048.144.032.304-.048.48-.064.176-.2.328-.408.456-.528.384-1.152.68-1.872.888a7.669 7.669 0 0 1-2.136.312ZM71.715 18.216c-.912 0-1.68-.16-2.304-.48a3.219 3.219 0 0 1-1.368-1.44c-.304-.64-.456-1.416-.456-2.328v-6.12H65.98c-.272 0-.48-.064-.624-.192-.144-.144-.216-.336-.216-.576 0-.24.072-.424.216-.552.144-.128.352-.192.624-.192h1.608v-2.76c0-.32.088-.56.264-.72.176-.176.416-.264.72-.264s.536.088.696.264c.176.16.264.4.264.72v2.76h3.024c.272 0 .48.064.624.192.144.128.216.312.216.552 0 .24-.072.432-.216.576-.144.128-.352.192-.624.192h-3.024v5.928c0 .912.192 1.608.576 2.088.384.464 1.008.696 1.872.696.304 0 .56-.032.768-.096a2.1 2.1 0 0 1 .552-.096.392.392 0 0 1 .36.144c.096.112.144.304.144.576 0 .192-.04.368-.12.528a.579.579 0 0 1-.36.336c-.192.064-.448.12-.768.168a4.1 4.1 0 0 1-.84.096Z" fill="#fff"/><path d="M63.63 18.216c-.913 0-1.68-.16-2.305-.48a3.219 3.219 0 0 1-1.368-1.44c-.304-.64-.456-1.416-.456-2.328v-6.12h-1.608c-.272 0-.48-.064-.624-.192-.144-.144-.216-.336-.216-.576 0-.24.072-.424.216-.552.144-.128.352-.192.624-.192h1.608v-2.76c0-.32.088-.56.264-.72.176-.176.416-.264.72-.264s.536.088.696.264c.176.16.264.4.264.72v2.76h3.024c.272 0 .48.064.624.192.144.128.216.312.216.552 0 .24-.072.432-.216.576-.144.128-.352.192-.624.192h-3.024v5.928c0 .912.192 1.608.576 2.088.384.464 1.008.696 1.872.696.304 0 .56-.032.768-.096a2.1 2.1 0 0 1 .552-.096.392.392 0 0 1 .36.144c.096.112.144.304.144.576 0 .192-.04.368-.12.528a.579.579 0 0 1-.36.336c-.192.064-.448.12-.768.168a4.1 4.1 0 0 1-.84.096ZM41.65 18.168c-.256 0-.464-.056-.624-.168a.8.8 0 0 1-.264-.48c-.016-.208.032-.44.144-.696l6.6-15.024c.144-.32.312-.544.504-.672.208-.144.432-.216.672-.216.24 0 .456.072.648.216.208.128.376.352.504.672l6.624 15.024c.128.256.176.488.144.696a.638.638 0 0 1-.24.48c-.144.112-.344.168-.6.168-.288 0-.52-.072-.696-.216-.176-.16-.32-.384-.432-.672l-1.776-4.104.96.504h-10.32l.984-.504-1.752 4.104c-.144.304-.296.528-.456.672-.16.144-.368.216-.624.216Zm7.008-14.784-3.864 9.096-.576-.456h8.88l-.528.456-3.864-9.096h-.048ZM21.456 16.824a.904.904 0 0 1-.528.072.79.79 0 0 1-.384-.24.989.989 0 0 1-.144-.432.667.667 0 0 1 .096-.432.934.934 0 0 1 .384-.36l10.752-4.8v.96l-10.752-4.8a1.005 1.005 0 0 1-.384-.336A.763.763 0 0 1 20.4 6a.83.83 0 0 1 .144-.408.727.727 0 0 1 .384-.264c.16-.048.336-.024.528.072l10.224 4.632c.512.224.768.584.768 1.08 0 .24-.064.456-.192.648-.128.176-.32.32-.576.432l-10.224 4.632ZM11.572 12.408a.863.863 0 0 1-.6-.216.786.786 0 0 1-.24-.576c0-.24.08-.432.24-.576.16-.16.36-.24.6-.24h5.4c.224 0 .416.08.576.24.16.144.24.336.24.576 0 .224-.08.416-.24.576a.831.831 0 0 1-.576.216h-5.4ZM1.4 12.408a.863.863 0 0 1-.6-.216.786.786 0 0 1-.24-.576c0-.24.08-.432.24-.576.16-.16.36-.24.6-.24h5.4c.224 0 .416.08.576.24.16.144.24.336.24.576 0 .224-.08.416-.24.576a.831.831 0 0 1-.576.216H1.4Z" fill="#fff"/></svg>